<?xml version="1.0" standalone="no"?>
<!DOCTYPE svg PUBLIC "-//W3C//DTD SVG 20010904//EN"
 "http://www.w3.org/TR/2001/REC-SVG-20010904/DTD/svg10.dtd">
<svg version="1.0" xmlns="http://www.w3.org/2000/svg"
 width="800.000000pt" height="600.000000pt" viewBox="0 0 800.000000 600.000000"
 preserveAspectRatio="xMidYMid meet">
<metadata>
Created by potrace 1.16, written by Peter Selinger 2001-2019
</metadata>
<g transform="translate(0.000000,600.000000) scale(0.100000,-0.100000)"
fill="#000000" stroke="none">
<path d="M4193 3797 l-613 -399 0 -112 0 -112 130 -85 c71 -46 130 -86 130
-89 0 -3 -59 -43 -130 -89 l-130 -85 0 -112 0 -112 613 -400 612 -399 3 105
c1 58 1 111 -1 116 -3 6 -239 162 -525 346 -287 184 -521 338 -521 342 -1 9
227 159 250 165 9 3 78 -35 156 -85 167 -109 215 -126 321 -120 94 6 159 34
222 98 70 70 94 128 94 230 1 78 -2 90 -33 148 -61 113 -154 172 -283 180
-106 6 -154 -11 -321 -120 -78 -50 -147 -88 -156 -85 -23 6 -251 156 -250 165
0 4 234 158 521 342 286 184 522 340 525 346 2 5 2 58 1 115 l-3 106 -612
-400z m355 -676 c86 -46 80 -200 -9 -246 -32 -17 -108 -22 -131 -9 -47 26
-208 130 -208 134 0 11 204 133 233 140 35 7 80 0 115 -19z"/>
<path d="M3190 3000 l0 -1180 90 0 90 0 0 1180 0 1180 -90 0 -90 0 0 -1180z"/>
</g>
</svg>
